<svg width="163" height="50" viewBox="0 0 163 50" fill="none" xmlns="http://www.w3.org/2000/svg">
<path d="M31.0632 19.7541H0.914307V25.4183H31.0632V19.7541Z" fill="white"/>
<path d="M163 19.7541H132.851V25.4183H163V19.7541Z" fill="white"/>
<path d="M0.914307 27.9809V31.0937L31.0632 31.2798V27.9809H0.914307Z" fill="#D6001C"/>
<path d="M132.851 27.9809V31.0937L163 31.2798V27.9809H132.851Z" fill="#D6001C"/>
<path d="M81.9508 21.5531H71.6785L82.0398 14.8088L81.9508 21.5531ZM125.576 28.7412C125.388 24.6612 123.115 21.4624 118.769 21.4608H102.564V16.0781H125.596V7.85773H94.0475V21.5531H90.4193L90.4336 7.85932H79.9816L57.8511 21.5531H46.6991V16.0781H59.8696L73.3598 7.85773H38.3467V42.1614H46.6975V29.7655H58.3442V29.7735H82.0398V42.1423H90.5084V29.7735H117.228V33.3222H94.1223V42.1407H118.769C123.231 42.1407 125.587 38.7335 125.587 34.547L125.576 28.7396V28.7412ZM30.4874 0V49.9873H54.5585V37.6296H74.1821V50H118.771C127.274 50 133.446 43.4991 133.446 34.5406L133.456 0H30.4874ZM129.145 4.30903V19.6284H124.592C127.258 21.4481 128.938 24.6071 129.121 28.5773L129.124 28.6553L129.135 34.5406C129.135 41.1099 124.871 45.691 118.769 45.691H78.4895V33.3206H54.9688V33.3158H50.2494V45.7117H34.7948V4.30903H129.146H129.145Z" fill="white"/>
</svg>
